<svg xmlns="http://www.w3.org/2000/svg" viewBox="0 0 472.65 584.48"><title>papelera</title><g id="Capa_2" data-name="Capa 2"><g id="Capa_1-2" data-name="Capa 1"><path d="M32.85,350.22V190.76c0-8.17,0-8.29-8-8.14-6.69.12-12.87-.63-17.93-5.78-3.43-3.5-6-7.46-6.14-12.23-.56-16.61-2-33.3,2-49.74,6.83-28,32.34-49.79,61-51.9,23.29-1.72,46.63-.47,69.94-.63,5,0,7-1,7.88-6.58C146.5,23.22,172.63.65,205.53.21q31-.42,62,0c32.91.45,58.76,23,63.83,55.65.77,5,2.72,6.55,7.74,6.48,20.16-.27,40.32-.16,60.49-.1,18.83.06,35.76,5.38,49.85,18.38s22.23,29,23,48.28c.43,11,.19,22,.06,33-.15,11.86-8.75,20.41-20.57,20.68-11.53.27-11.53.27-11.53,11.74q0,154.47,0,308.93c0,41.81-27.81,74.29-69.18,80.76a65,65,0,0,1-10,.46q-124.73,0-249.45,0a78.94,78.94,0,0,1-78.92-78.78Q32.81,428,32.85,350.22Zm42.39-2.61c0,51.66.44,103.33-.22,155a38.91,38.91,0,0,0,39.66,39.61c81-.31,162-.42,243,.08,23.48.14,40.59-18,40.5-40.47-.41-104-.18-208-.18-312,0-7.25,0-7.26-7-7.26H82.5c-7.25,0-7.26,0-7.26,7.55Q75.23,268.87,75.24,347.61ZM236.61,140.16v-.09H416.05c3.33,0,6.66.05,10,.1,2.29,0,3.84-.67,4-3.32.49-8.29-1.22-15.75-6.91-22.23-6.38-7.27-14.33-9.48-23.67-9.46q-93.21.24-186.43.15c-47.15,0-94.3-.13-141.45,0-17.82,0-28.76,11.74-28.5,29.51.06,4.15,1.5,5.44,5.59,5.44Q142.64,140.08,236.61,140.16Zm-.42-78.08c16,0,32,0,48,0,4.75,0,5.26-.92,3.54-5.37a20.39,20.39,0,0,0-19.25-13.37c-20.83-.07-41.66.11-62.48-.1-10.1-.1-16.7,4.61-20.82,13.43-2.14,4.58-1.62,5.41,3.54,5.42Q212.46,62.12,236.19,62.08Z"/><path d="M215,365.29q0-45.48,0-91c0-11.53,5.43-19.39,15.33-22.65,11.21-3.69,24,3.53,26.7,15.13a45.87,45.87,0,0,1,1.09,10.4q0,88.21,0,176.42c0,6.69-.32,13.42-4.84,19a21.56,21.56,0,0,1-23.85,7c-8.43-2.78-14.2-10.87-14.34-20.84-.19-13.5-.06-27-.06-40.48Z"/><path d="M298.15,365.76q0-45.47,0-90.93c0-10.47,3.82-18.42,13.92-22.62,10.84-4.5,24.4,1.89,27.62,13.21a33,33,0,0,1,1.36,8.85q.12,91.44,0,182.87c0,9.5-3.44,17.37-12.55,21.57-14.75,6.8-30.22-3.62-30.33-20.51-.15-23.49,0-47,0-70.45Z"/><path d="M174.45,366.32c0,30.48-.37,60.95.17,91.42.24,14-10.08,23-21,22.92-12.61-.06-21.54-9.39-21.55-23.05q0-91.67,0-183.33c0-9.07,3.24-16.39,11.29-20.81,14.41-7.9,31,2,31.09,18.44.13,24.64,0,49.29,0,73.93Z"/></g></g></svg>